# xmcd
#
# Track frame offsets:
#	150
#	14230
#	32180
#	51675
#	62884
#	81342
#	95454
#	111311
#	128438
#	140613
#	156618
#
# Disc length: 2316 seconds
#
# Revision: 0
# Processed by: cddbd v1.5.1PL2 Copyright (c) Steve Scherf et al.
# Submitted via: dBpowerAMP V4.0
#
DISCID=a8090a0b
DTITLE=Robert Wm Welch - Reflections
DYEAR=2001
DGENRE=Christian
TTITLE0=Higher Ground
TTITLE1=Blessed Assurance
TTITLE2=Beulah Lank
TTITLE3=In The Garden
TTITLE4=At The Cross
TTITLE5=Uncloudy Day
TTITLE6=Look For Me
TTITLE7=Gospel Ship
TTITLE8=At Calvary
TTITLE9=No One Ever Cared For Me Like Jesus
TTITLE10=Lord I'm Coming Home
EXTD=Sliced Bread Music
EXTT0=
EXTT1=
EXTT2=
EXTT3=
EXTT4=
EXTT5=
EXTT6=
EXTT7=
EXTT8=
EXTT9=
EXTT10=
PLAYORDER=
